<svg xmlns="http://www.w3.org/2000/svg" viewBox="0 0 1024 1024">
  <defs>
    <linearGradient id="sky" x1="0" y1="0" x2="0" y2="1">
      <stop offset="0" stop-color="#8FB6DF"/>
      <stop offset="0.55" stop-color="#6B9FD4"/>
      <stop offset="1" stop-color="#4F7FB4"/>
    </linearGradient>
    <linearGradient id="page" x1="0" y1="0" x2="0" y2="1">
      <stop offset="0" stop-color="#FFFFFF"/>
      <stop offset="1" stop-color="#EFF3F8"/>
    </linearGradient>
    <clipPath id="squircle">
      <rect x="64" y="64" width="896" height="896" rx="200"/>
    </clipPath>
  </defs>

  <!-- macOS rounded-rect canvas -->
  <rect x="64" y="64" width="896" height="896" rx="200" fill="url(#sky)"/>

  <g clip-path="url(#squircle)">
    <!-- note page with folded corner -->
    <path d="M312 240
             h300
             l100 100
             v420
             a24 24 0 0 1 -24 24
             h-376
             a24 24 0 0 1 -24 -24
             v-496
             a24 24 0 0 1 24 -24 z"
          fill="url(#page)"/>
    <!-- fold -->
    <path d="M612 240 l100 100 h-76 a24 24 0 0 1 -24 -24 z" fill="#C9D6E4"/>
    <!-- text lines -->
    <rect x="352" y="392" width="256" height="26" rx="13" fill="#8FA9C4"/>
    <rect x="352" y="452" width="308" height="26" rx="13" fill="#AFC4D9"/>
    <rect x="352" y="512" width="220" height="26" rx="13" fill="#AFC4D9"/>

    <!-- fog bands sweeping across the page -->
    <rect x="20" y="596" width="672" height="72" rx="36" fill="#FFFFFF" opacity="0.92"/>
    <rect x="180" y="692" width="824" height="72" rx="36" fill="#FFFFFF" opacity="0.62"/>
    <rect x="-40" y="788" width="736" height="72" rx="36" fill="#FFFFFF" opacity="0.38"/>
  </g>
</svg>
