<svg xmlns="http://www.w3.org/2000/svg" viewBox="0 0 64 64" fill="currentColor">
  <path d="M14 6 h26 l10 10 v36 a4 4 0 0 1 -4 4 h-32 a4 4 0 0 1 -4 -4 v-42 a4 4 0 0 1 4 -4 z
           M40 10.8 v3.2 a2 2 0 0 0 2 2 h3.2 z
           M18 20 h18 a1.8 1.8 0 0 1 0 3.6 h-18 a1.8 1.8 0 0 1 0 -3.6 z"
        fill-rule="evenodd"/>
  <rect x="2" y="41" width="38" height="5.5" rx="2.75"/>
  <rect x="12" y="49" width="50" height="5.5" rx="2.75" opacity="0.55"/>
  <rect x="0" y="57" width="42" height="5.5" rx="2.75" opacity="0.3"/>
</svg>
