<svg xmlns="http://www.w3.org/2000/svg" viewBox="0 0 300 64">
  <!-- mark -->
  <g>
    <path d="M14 6 h26 l10 10 v36 a4 4 0 0 1 -4 4 h-32 a4 4 0 0 1 -4 -4 v-42 a4 4 0 0 1 4 -4 z"
          fill="#FFFFFF" stroke="#4F7FB4" stroke-width="2.5" stroke-linejoin="round"/>
    <path d="M40 6 l10 10 h-8 a2 2 0 0 1 -2 -2 z" fill="#C9D6E4" stroke="#4F7FB4" stroke-width="2.5" stroke-linejoin="round"/>
    <rect x="18" y="20" width="18" height="3.6" rx="1.8" fill="#6B9FD4"/>
    <rect x="18" y="27" width="24" height="3.6" rx="1.8" fill="#AFC4D9"/>
    <rect x="18" y="34" width="16" height="3.6" rx="1.8" fill="#AFC4D9"/>
    <rect x="2" y="41" width="38" height="5.5" rx="2.75" fill="#6B9FD4"/>
    <rect x="12" y="49" width="50" height="5.5" rx="2.75" fill="#6B9FD4" opacity="0.55"/>
    <rect x="0" y="57" width="42" height="5.5" rx="2.75" fill="#6B9FD4" opacity="0.3"/>
  </g>
  <!-- wordmark -->
  <text x="76" y="42" font-family="-apple-system, 'SF Pro Display', 'Segoe UI', Helvetica, sans-serif"
        font-size="30" font-weight="700" fill="#3D5A7A" letter-spacing="-0.5">FOG<tspan font-weight="400" fill="#6B9FD4">Note</tspan></text>
</svg>
